<?xml version="1.0" encoding="UTF-8" standalone="no"?><!DOCTYPE svg PUBLIC "-//W3C//DTD SVG 1.1//EN" "http://www.w3.org/Graphics/SVG/1.1/DTD/svg11.dtd"><svg width="100%" height="100%" viewBox="0 0 24 27" version="1.1" xmlns="http://www.w3.org/2000/svg" xmlns:xlink="http://www.w3.org/1999/xlink" xml:space="preserve" xmlns:serif="http://www.serif.com/" style="fill-rule:evenodd;clip-rule:evenodd;stroke-linejoin:round;stroke-miterlimit:2;"><path id="bell" d="M11.748,26.852c1.852,-0 3.355,-1.503 3.355,-3.357l-6.71,0c-0,1.854 1.502,3.357 3.355,3.357Zm11.296,-7.852c-1.014,-1.089 -2.909,-2.726 -2.909,-8.092c-0,-4.074 -2.858,-7.337 -6.71,-8.137l-0,-1.093c-0,-0.926 -0.751,-1.678 -1.677,-1.678c-0.927,0 -1.678,0.752 -1.678,1.678l0,1.093c-3.852,0.8 -6.709,4.063 -6.709,8.137c-0,5.366 -1.896,7.003 -2.909,8.092c-0.315,0.338 -0.455,0.743 -0.452,1.139c0.006,0.86 0.681,1.678 1.684,1.678l20.128,-0c1.003,-0 1.678,-0.818 1.683,-1.678c0.003,-0.396 -0.137,-0.801 -0.451,-1.139Z" style="fill:#eee;fill-rule:nonzero;"/></svg>