<?xml version="1.0" encoding="UTF-8" standalone="no"?><!DOCTYPE svg PUBLIC "-//W3C//DTD SVG 1.1//EN" "http://www.w3.org/Graphics/SVG/1.1/DTD/svg11.dtd"><svg width="100%" height="100%" viewBox="0 0 32 36" version="1.1" xmlns="http://www.w3.org/2000/svg" xmlns:xlink="http://www.w3.org/1999/xlink" xml:space="preserve" xmlns:serif="http://www.serif.com/" style="fill-rule:evenodd;clip-rule:evenodd;stroke-linejoin:round;stroke-miterlimit:2;"><path id="calendar-alt" d="M0,32.203c0,1.839 1.492,3.331 3.331,3.331l24.43,0c1.839,0 3.331,-1.492 3.331,-3.331l0,-18.878l-31.092,0l0,18.878Zm22.209,-13.603c-0,-0.458 0.375,-0.833 0.833,-0.833l2.776,0c0.458,0 0.833,0.375 0.833,0.833l-0,2.776c-0,0.458 -0.375,0.833 -0.833,0.833l-2.776,-0c-0.458,-0 -0.833,-0.375 -0.833,-0.833l-0,-2.776Zm-0,8.883c-0,-0.458 0.375,-0.832 0.833,-0.832l2.776,-0c0.458,-0 0.833,0.374 0.833,0.832l-0,2.777c-0,0.458 -0.375,0.832 -0.833,0.832l-2.776,0c-0.458,0 -0.833,-0.374 -0.833,-0.832l-0,-2.777Zm-8.884,-8.883c0,-0.458 0.375,-0.833 0.833,-0.833l2.776,0c0.458,0 0.833,0.375 0.833,0.833l0,2.776c0,0.458 -0.375,0.833 -0.833,0.833l-2.776,-0c-0.458,-0 -0.833,-0.375 -0.833,-0.833l0,-2.776Zm0,8.883c0,-0.458 0.375,-0.832 0.833,-0.832l2.776,-0c0.458,-0 0.833,0.374 0.833,0.832l0,2.777c0,0.458 -0.375,0.832 -0.833,0.832l-2.776,0c-0.458,0 -0.833,-0.374 -0.833,-0.832l0,-2.777Zm-8.883,-8.883c-0,-0.458 0.375,-0.833 0.833,-0.833l2.776,0c0.458,0 0.833,0.375 0.833,0.833l-0,2.776c-0,0.458 -0.375,0.833 -0.833,0.833l-2.776,-0c-0.458,-0 -0.833,-0.375 -0.833,-0.833l-0,-2.776Zm-0,8.883c-0,-0.458 0.375,-0.832 0.833,-0.832l2.776,-0c0.458,-0 0.833,0.374 0.833,0.832l-0,2.777c-0,0.458 -0.375,0.832 -0.833,0.832l-2.776,0c-0.458,0 -0.833,-0.374 -0.833,-0.832l-0,-2.777Zm23.319,-23.041l-3.331,-0l-0,-3.332c-0,-0.61 -0.5,-1.11 -1.111,-1.11l-2.221,-0c-0.61,-0 -1.11,0.5 -1.11,1.11l-0,3.332l-8.884,-0l0,-3.332c0,-0.61 -0.499,-1.11 -1.11,-1.11l-2.221,-0c-0.611,-0 -1.11,0.5 -1.11,1.11l-0,3.332l-3.332,-0c-1.839,-0 -3.331,1.492 -3.331,3.331l0,3.331l31.092,0l0,-3.331c0,-1.839 -1.492,-3.331 -3.331,-3.331Z" style="fill:#eee;fill-rule:nonzero;"/></svg>