<?xml version="1.0" encoding="UTF-8" standalone="no"?><!DOCTYPE svg PUBLIC "-//W3C//DTD SVG 1.1//EN" "http://www.w3.org/Graphics/SVG/1.1/DTD/svg11.dtd"><svg width="100%" height="100%" viewBox="0 0 30 31" version="1.1" xmlns="http://www.w3.org/2000/svg" xmlns:xlink="http://www.w3.org/1999/xlink" xml:space="preserve" xmlns:serif="http://www.serif.com/" style="fill-rule:evenodd;clip-rule:evenodd;stroke-linejoin:round;stroke-miterlimit:2;"><path id="settings-sharp" d="M14.657,9.816c-2.872,0 -5.235,2.364 -5.235,5.236c-0,2.872 2.363,5.235 5.235,5.235c2.872,-0 5.235,-2.363 5.235,-5.235c-0.008,-2.869 -2.366,-5.227 -5.235,-5.236Zm11.303,5.236c-0.003,0.489 -0.038,0.977 -0.107,1.462l3.186,2.494c0.286,0.236 0.359,0.648 0.172,0.967l-3.014,5.204c-0.188,0.317 -0.581,0.454 -0.925,0.323l-3.747,-1.505c-0.78,0.601 -1.634,1.099 -2.54,1.483l-0.56,3.978c-0.065,0.366 -0.382,0.638 -0.754,0.645l-6.028,0c-0.365,-0.007 -0.678,-0.267 -0.753,-0.623l-0.561,-3.978c-0.909,-0.38 -1.763,-0.879 -2.54,-1.485l-3.747,1.505c-0.344,0.131 -0.736,-0.005 -0.925,-0.322l-3.014,-5.203c-0.187,-0.32 -0.113,-0.731 0.172,-0.967l3.186,-2.495c-0.068,-0.491 -0.104,-0.987 -0.107,-1.483c0.003,-0.49 0.039,-0.978 0.107,-1.462l-3.186,-2.495c-0.285,-0.236 -0.359,-0.648 -0.172,-0.967l3.014,-5.204c0.188,-0.317 0.581,-0.454 0.925,-0.323l3.747,1.505c0.78,-0.6 1.634,-1.099 2.54,-1.483l0.561,-3.978c0.064,-0.366 0.381,-0.638 0.753,-0.645l6.028,-0c0.365,0.007 0.679,0.267 0.754,0.624l0.56,3.977c0.91,0.38 1.765,0.879 2.543,1.485l3.744,-1.505c0.344,-0.131 0.737,0.005 0.925,0.322l3.014,5.204c0.187,0.32 0.114,0.731 -0.172,0.967l-3.186,2.495c0.068,0.491 0.104,0.987 0.107,1.483Z" style="fill:#eee;fill-rule:nonzero;"/></svg>