<?xml version="1.0" encoding="UTF-8" standalone="no"?><!DOCTYPE svg PUBLIC "-//W3C//DTD SVG 1.1//EN" "http://www.w3.org/Graphics/SVG/1.1/DTD/svg11.dtd"><svg width="100%" height="100%" viewBox="0 0 18 36" version="1.1" xmlns="http://www.w3.org/2000/svg" xmlns:xlink="http://www.w3.org/1999/xlink" xml:space="preserve" xmlns:serif="http://www.serif.com/" style="fill-rule:evenodd;clip-rule:evenodd;stroke-linejoin:round;stroke-miterlimit:2;"><path id="thermometer-full" d="M15.546,6.663c0,-3.68 -2.983,-6.663 -6.662,-6.663c-3.68,0 -6.663,2.983 -6.663,6.663l-0,14.112c-1.373,1.556 -2.21,3.595 -2.221,5.829c-0.025,4.88 3.941,8.896 8.82,8.93c0.021,0 0.043,0 0.064,0c4.906,0 8.883,-3.977 8.883,-8.883c0,-2.253 -0.839,-4.31 -2.221,-5.876l0,-14.112Zm-6.662,25.54l-0.04,-0c-3.044,-0.021 -5.528,-2.537 -5.513,-5.582c0.012,-2.358 1.337,-3.584 2.221,-4.586l0,-15.372c0,-1.837 1.495,-3.332 3.332,-3.332c1.836,0 3.331,1.495 3.331,3.332l-0,15.372c0.876,0.994 2.221,2.232 2.221,4.616c-0,3.061 -2.491,5.552 -5.552,5.552Zm4.441,-5.552c0,2.453 -1.988,4.441 -4.441,4.441c-2.454,0 -4.442,-1.988 -4.442,-4.441c-0,-1.644 0.893,-3.078 2.221,-3.846l-0,-16.142c-0,-1.227 0.994,-2.221 2.221,-2.221c1.226,-0 2.22,0.994 2.22,2.221l0,16.142c1.328,0.768 2.221,2.202 2.221,3.846Z" style="fill:#202022;fill-rule:nonzero;"/></svg>