<?xml version="1.0" encoding="UTF-8" standalone="no"?><!DOCTYPE svg PUBLIC "-//W3C//DTD SVG 1.1//EN" "http://www.w3.org/Graphics/SVG/1.1/DTD/svg11.dtd"><svg width="100%" height="100%" viewBox="0 0 27 27" version="1.1" xmlns="http://www.w3.org/2000/svg" xmlns:xlink="http://www.w3.org/1999/xlink" xml:space="preserve" xmlns:serif="http://www.serif.com/" style="fill-rule:evenodd;clip-rule:evenodd;stroke-linejoin:round;stroke-miterlimit:2;"><path id="user-alt" d="M13.426,15.104c4.169,0 7.552,-3.383 7.552,-7.552c-0,-4.169 -3.383,-7.552 -7.552,-7.552c-4.17,0 -7.552,3.383 -7.552,7.552c-0,4.169 3.382,7.552 7.552,7.552Zm6.713,1.678l-2.89,0c-1.164,0.535 -2.46,0.839 -3.823,0.839c-1.364,0 -2.654,-0.304 -3.823,-0.839l-2.89,0c-3.708,0 -6.713,3.005 -6.713,6.713l-0,0.839c-0,1.39 1.128,2.518 2.517,2.518l21.817,-0c1.39,-0 2.518,-1.128 2.518,-2.518l-0,-0.839c-0,-3.708 -3.005,-6.713 -6.713,-6.713Z" style="fill:#eee;fill-rule:nonzero;"/></svg>